{
    "asset" : {
        "generator" : "Khronos glTF Blender I/O v1.5.17",
        "version" : "2.0"
    },
    "scene" : 0,
    "scenes" : [
        {
            "name" : "Scene",
            "nodes" : [
                0
            ]
        }
    ],
    "nodes" : [
        {
            "mesh" : 0,
            "name" : "flag_teamBlue",
            "rotation" : [
                0.7071068286895752,
                0,
                0,
                0.7071067094802856
            ]
        }
    ],
    "materials" : [
        {
            "doubleSided" : true,
            "name" : "Blue.011",
            "pbrMetallicRoughness" : {
                "baseColorFactor" : [
                    0.1268673837184906,
                    0.4590684771537781,
                    1,
                    1
                ],
                "metallicFactor" : 0,
                "roughnessFactor" : 0.20000000298023224
            }
        },
        {
            "doubleSided" : true,
            "name" : "Brown.006",
            "pbrMetallicRoughness" : {
                "baseColorFactor" : [
                    0.5778115391731262,
                    0.23347531259059906,
                    0.11534765362739563,
                    1
                ],
                "metallicFactor" : 0,
                "roughnessFactor" : 0.5
            }
        },
        {
            "doubleSided" : true,
            "name" : "Metal.019",
            "pbrMetallicRoughness" : {
                "baseColorFactor" : [
                    0.40126433968544006,
                    0.47849249839782715,
                    0.5173344612121582,
                    1
                ],
                "metallicFactor" : 0.20000000298023224,
                "roughnessFactor" : 0.30000001192092896
            }
        }
    ],
    "meshes" : [
        {
            "name" : "Cube.1351",
            "primitives" : [
                {
                    "attributes" : {
                        "POSITION" : 0,
                        "NORMAL" : 1,
                        "TEXCOORD_0" : 2
                    },
                    "indices" : 3,
                    "material" : 0
                },
                {
                    "attributes" : {
                        "POSITION" : 4,
                        "NORMAL" : 5,
                        "TEXCOORD_0" : 6
                    },
                    "indices" : 7,
                    "material" : 1
                },
                {
                    "attributes" : {
                        "POSITION" : 8,
                        "NORMAL" : 9,
                        "TEXCOORD_0" : 10
                    },
                    "indices" : 11,
                    "material" : 2
                }
            ]
        }
    ],
    "accessors" : [
        {
            "bufferView" : 0,
            "componentType" : 5126,
            "count" : 96,
            "max" : [
                0.924407422542572,
                0.053807374089956284,
                -1.187756896018982
            ],
            "min" : [
                0.02672109752893448,
                -0.053807489573955536,
                -1.782780408859253
            ],
            "type" : "VEC3"
        },
        {
            "bufferView" : 1,
            "componentType" : 5126,
            "count" : 96,
            "type" : "VEC3"
        },
        {
            "bufferView" : 2,
            "componentType" : 5126,
            "count" : 96,
            "type" : "VEC2"
        },
        {
            "bufferView" : 3,
            "componentType" : 5123,
            "count" : 324,
            "type" : "SCALAR"
        },
        {
            "bufferView" : 4,
            "componentType" : 5126,
            "count" : 241,
            "max" : [
                0.276187539100647,
                0.27617567777633667,
                0
            ],
            "min" : [
                -0.27616390585899353,
                -0.2761758267879486,
                -0.19215628504753113
            ],
            "type" : "VEC3"
        },
        {
            "bufferView" : 5,
            "componentType" : 5126,
            "count" : 241,
            "type" : "VEC3"
        },
        {
            "bufferView" : 6,
            "componentType" : 5126,
            "count" : 241,
            "type" : "VEC2"
        },
        {
            "bufferView" : 7,
            "componentType" : 5123,
            "count" : 708,
            "type" : "SCALAR"
        },
        {
            "bufferView" : 8,
            "componentType" : 5126,
            "count" : 161,
            "max" : [
                0.1200542077422142,
                0.12004368007183075,
                -0.12920475006103516
            ],
            "min" : [
                -0.12003346532583237,
                -0.12004400044679642,
                -1.999525785446167
            ],
            "type" : "VEC3"
        },
        {
            "bufferView" : 9,
            "componentType" : 5126,
            "count" : 161,
            "type" : "VEC3"
        },
        {
            "bufferView" : 10,
            "componentType" : 5126,
            "count" : 161,
            "type" : "VEC2"
        },
        {
            "bufferView" : 11,
            "componentType" : 5123,
            "count" : 696,
            "type" : "SCALAR"
        }
    ],
    "bufferViews" : [
        {
            "buffer" : 0,
            "byteLength" : 1152,
            "byteOffset" : 0
        },
        {
            "buffer" : 0,
            "byteLength" : 1152,
            "byteOffset" : 1152
        },
        {
            "buffer" : 0,
            "byteLength" : 768,
            "byteOffset" : 2304
        },
        {
            "buffer" : 0,
            "byteLength" : 648,
            "byteOffset" : 3072
        },
        {
            "buffer" : 0,
            "byteLength" : 2892,
            "byteOffset" : 3720
        },
        {
            "buffer" : 0,
            "byteLength" : 2892,
            "byteOffset" : 6612
        },
        {
            "buffer" : 0,
            "byteLength" : 1928,
            "byteOffset" : 9504
        },
        {
            "buffer" : 0,
            "byteLength" : 1416,
            "byteOffset" : 11432
        },
        {
            "buffer" : 0,
            "byteLength" : 1932,
            "byteOffset" : 12848
        },
        {
            "buffer" : 0,
            "byteLength" : 1932,
            "byteOffset" : 14780
        },
        {
            "buffer" : 0,
            "byteLength" : 1288,
            "byteOffset" : 16712
        },
        {
            "buffer" : 0,
            "byteLength" : 1392,
            "byteOffset" : 18000
        }
    ],
    "buffers" : [
        {
            "byteLength" : 19392,
            "uri" : "data:application/octet-stream;base64,"
        }
    ]
}
